<?xml version="1.0" encoding="utf-8"?>
<!-- Generator: Adobe Illustrator 19.1.0, SVG Export Plug-In . SVG Version: 6.00 Build 0)  -->
<svg version="1.1" id="Layer_1" xmlns="http://www.w3.org/2000/svg" xmlns:xlink="http://www.w3.org/1999/xlink" x="0px" y="0px"
	 viewBox="-237 238 25 25" style="enable-background:new -237 238 25 25;" xml:space="preserve">
<style type="text/css">
	.st0{fill:#FFFFFF;}
</style>
<g>
	<g>
		<circle cx="-224.5" cy="250.5" r="11.6"/>
	</g>
	<g>
		<path d="M-224.5,263c-6.9,0-12.5-5.6-12.5-12.5s5.6-12.5,12.5-12.5s12.5,5.6,12.5,12.5S-217.6,263-224.5,263z M-224.5,239.7
			c-6,0-10.8,4.8-10.8,10.8s4.8,10.8,10.8,10.8s10.8-4.8,10.8-10.8S-218.5,239.7-224.5,239.7z"/>
	</g>
</g>
<g>
	<path class="st0" d="M-215.6,251h-3.4l-2.6-2h-5.8l0.4-0.9h4.2l-1.4-1.1h-1.7h-0.7l0.6-1.5h-0.5h-0.6h-0.7l-0.2,0.5h0.7l-0.4,1
		h-1.8l-0.4,1.1h1.8l-0.4,1h-3.1l-0.4,1h1.6l-0.4,1h-1.6l-0.7,1.7h-0.5v1h17.2l1-2.5L-215.6,251z M-229.7,251l0.4-0.9h7.5l1.2,0.9
		H-229.7z"/>
</g>
</svg>
